<svg width="498" height="498" viewBox="0 0 498 498" fill="none" xmlns="http://www.w3.org/2000/svg">
<path fill-rule="evenodd" clip-rule="evenodd" d="M248.691 0C386.305 0 498 111.078 498 248.691C498 386.305 386.305 498 248.691 498C111.078 498 0 386.305 0 248.691C0 111.078 111.078 0 248.691 0ZM144.401 209.197H209.197V144.401C209.197 91.948 288.803 91.948 288.803 144.401V209.197H353.599C405.435 209.197 405.435 288.803 353.599 288.803H288.803V353.599C288.803 405.435 209.197 405.435 209.197 353.599V288.803H144.401C91.948 288.803 91.948 209.197 144.401 209.197Z" fill="black"/>
</svg>
