<svg width="80" height="80" viewBox="0 0 80 80" fill="none" xmlns="http://www.w3.org/2000/svg">
<path d="M78.419 19.258L60.741 1.58101C59.764 0.604008 58.182 0.605008 57.206 1.58101L46.54 12.245C46.052 12.733 45.808 13.373 45.808 14.013C45.808 14.333 45.87 14.653 45.991 14.954C46.114 15.255 46.297 15.537 46.541 15.781L62.451 31.692L32.575 61.566L18.475 47.467L45.09 21.112C46.071 20.14 46.079 18.558 45.108 17.576C44.135 16.595 42.553 16.588 41.573 17.559L13.523 45.335C13.384 45.427 13.252 45.534 13.13 45.656C13.019 45.767 12.923 45.888 12.837 46.014L6.067 52.718C5.714 53.067 5.473 53.513 5.376 53.999L0.897999 76.156C0.731999 76.977 0.987999 77.826 1.581 78.419C2.055 78.892 2.692 79.151 3.349 79.151C3.514 79.151 3.68 79.135 3.844 79.101L25.999 74.622C26.481 74.525 26.924 74.288 27.271 73.939L78.418 22.792C78.887 22.323 79.15 21.688 79.15 21.024C79.15 20.36 78.888 19.727 78.419 19.258ZM24.27 69.872L6.545 73.455L10.126 55.736L14.924 50.985L29.04 65.102L24.27 69.872ZM65.985 28.156L51.843 14.014L58.974 6.88401L73.117 21.026L65.985 28.156Z" fill="black"/>
</svg>
