<?xml version="1.0" encoding="utf-8"?>
<!-- Generator: Adobe Illustrator 25.2.1, SVG Export Plug-In . SVG Version: 6.00 Build 0)  -->
<svg version="1.1" xmlns="http://www.w3.org/2000/svg" xmlns:xlink="http://www.w3.org/1999/xlink" x="0px" y="0px"
	 viewBox="0 0 78.3 95" style="enable-background:new 0 0 78.3 95;" xml:space="preserve">
<g id="Capa_2">
</g>
<g id="Capa_1">
	<g>
		<path d="M26.9,83.1L26.9,83.1c1.5-0.1,2.5-1.2,2.4-2.6l-2.5-43.7c-0.1-1.4-1.2-2.4-2.6-2.3c-1.4,0.1-2.4,1.2-2.3,2.6l2.5,43.7
			C24.5,82,25.6,83.1,26.9,83.1z"/>
		<path d="M39.2,83.1c1.4,0,2.5-1.1,2.5-2.5V36.9c0-1.4-1.1-2.5-2.5-2.5s-2.5,1.1-2.5,2.5v43.7C36.7,82,37.8,83.1,39.2,83.1z"/>
		<path d="M51.3,83.1L51.3,83.1c1.4,0,2.5-1,2.6-2.3l2.5-43.7c0.1-1.4-1-2.5-2.3-2.6c-1.4-0.1-2.5,1-2.6,2.3L49,80.5
			C48.9,81.8,50,83,51.3,83.1z"/>
		<path d="M72.4,11.4H52.3L50.9,5c-0.6-2.8-3.2-4.9-6.1-4.9L33.6,0l0,0c-2.9,0-5.4,2-6.1,4.8L26,11.4H6c-3.3,0-6,2.7-6,6v4.1
			c0,3.3,2.7,6,6,6h0.9l4.3,58.7c0.4,4.9,4.5,8.8,9.4,8.8h37.1c4.9,0,9.1-3.9,9.4-8.8l4.3-58.8h0.9c3.3,0,6-2.7,6-6v-4.1
			C78.4,14.1,75.7,11.4,72.4,11.4z M32.3,5.9c0.1-0.6,0.7-1,1.3-1l0,0L44.9,5c0.6,0,1.1,0.4,1.3,1l1.2,5.4H31.1L32.3,5.9z
			 M62.3,85.9c-0.2,2.4-2.2,4.2-4.5,4.2H20.7c-2.4,0-4.3-1.8-4.5-4.2l-4.3-58.4h54.6L62.3,85.9z M73.4,21.5c0,0.6-0.5,1-1,1H6
			c-0.6,0-1-0.5-1-1v-4.1c0-0.6,0.5-1,1-1h66.4c0.6,0,1,0.5,1,1V21.5z"/>
	</g>
</g>
</svg>
