<svg xmlns="http://www.w3.org/2000/svg" xmlns:xlink="http://www.w3.org/1999/xlink" version="1.1" x="0px" y="0px" viewBox="0 0 100 125" enable-background="new 0 0 100 100" xml:space="preserve"><path d="M88.419,29.258L70.741,11.581c-0.977-0.977-2.559-0.976-3.535,0L56.54,22.245c-0.488,0.488-0.732,1.128-0.732,1.768  c0,0.32,0.062,0.64,0.183,0.941c0.123,0.301,0.306,0.583,0.55,0.827l15.91,15.911L42.575,71.566l-14.1-14.099L55.09,31.112  c0.981-0.972,0.989-2.554,0.018-3.536c-0.973-0.981-2.555-0.988-3.535-0.017l-28.05,27.776c-0.139,0.092-0.271,0.199-0.393,0.321  c-0.111,0.111-0.207,0.232-0.293,0.358l-6.77,6.704c-0.353,0.349-0.594,0.795-0.691,1.281l-4.478,22.157  c-0.166,0.821,0.09,1.67,0.683,2.263c0.474,0.473,1.111,0.732,1.768,0.732c0.165,0,0.331-0.016,0.495-0.05l22.155-4.479  c0.482-0.097,0.925-0.334,1.272-0.683l51.147-51.147c0.469-0.469,0.732-1.104,0.732-1.768S88.888,29.727,88.419,29.258z   M34.27,79.872l-17.725,3.583l3.581-17.719l4.798-4.751L39.04,75.102L34.27,79.872z M75.985,38.156L61.843,24.014l7.131-7.13  l14.143,14.142L75.985,38.156z"/><text x="0" y="115" fill="#000000" font-size="5px" font-weight="bold" font-family="'Helvetica Neue', Helvetica, Arial-Unicode, Arial, Sans-serif">Created by myladkings</text><text x="0" y="120" fill="#000000" font-size="5px" font-weight="bold" font-family="'Helvetica Neue', Helvetica, Arial-Unicode, Arial, Sans-serif">from the Noun Project</text></svg>